<svg id="abd59b57-7632-4a4b-af6e-f456fe0c7b70" xmlns="http://www.w3.org/2000/svg" width="40" height="40" viewBox="0 0 40 40">
  <defs>
    <linearGradient id="b7d220cc-48e1-44c0-9aa2-a7e825f20b15" x1="-802.1716" y1="350.9064" x2="-813.5867" y2="317.1834" gradientTransform="matrix(1, 0, 0, -1, 820, 356)" gradientUnits="userSpaceOnUse">
      <stop offset="0" stop-color="#114a8b"/>
      <stop offset="1" stop-color="#0669bc"/>
    </linearGradient>
    <linearGradient id="a3e72200-89ed-4784-bf98-dfc915655c00" x1="-800.081" y1="351.8903" x2="-787.5508" y2="318.5067" gradientTransform="matrix(1, 0, 0, -1, 820, 356)" gradientUnits="userSpaceOnUse">
      <stop offset="0" stop-color="#3ccbf4"/>
      <stop offset="1" stop-color="#2892df"/>
    </linearGradient>
  </defs>
  <g>
    <path d="M13.8015,2.5H24.8138L13.3972,36.3272A1.7241,1.7241,0,0,1,11.7636,37.5H3.1528a1.724,1.724,0,0,1-1.6335-2.2754L12.1681,3.6727A1.7239,1.7239,0,0,1,13.8015,2.5Z" fill="url(#b7d220cc-48e1-44c0-9aa2-a7e825f20b15)"/>
    <path d="M29.006,24.537H11.6505a.8019.8019,0,0,0-.5472,1.3881L23.0046,37.036a1.7248,1.7248,0,0,0,1.1768.4639H34.017Z" fill="#0078d4"/>
    <g opacity="0.5">
      <path d="M25.9162,37.5h8.0907L28.9959,24.537H22.3973l3.8175,11.2985A1.7436,1.7436,0,0,1,25.9162,37.5Z"/>
      <path d="M19.8863,17.0926,24.8113,2.5h-9.992a1.7454,1.7454,0,0,1,.3337.5839Z"/>
    </g>
    <g opacity="0.5">
      <path d="M14.1955,2.5l5.3693,15.5534.7439-2.2125L15.813,2.5Z" fill-opacity="0.5"/>
      <path d="M24.3683,37.5l9.6394,0-7.3189,0a2.38,2.38,0,0,0,.1417-1.8722L23.0831,24.5369H21.7126L25.6,36.0433A1.1033,1.1033,0,0,1,24.555,37.5Z" fill-opacity="0.5"/>
    </g>
    <path d="M27.832,3.6728A1.724,1.724,0,0,0,26.1984,2.5H13.93A1.75,1.75,0,0,1,15.588,3.69l10.6314,31.5A1.75,1.75,0,0,1,24.5616,37.5H36.8471a1.7241,1.7241,0,0,0,1.6336-2.2754Z" fill="url(#a3e72200-89ed-4784-bf98-dfc915655c00)"/>
  </g>
</svg>
